Coordinates
version=1
nRows=5
nColumns=40
inDegrees=yes

Units are S.I. units (second, meters, Newtons, ...)
If the header above contains a line with 'inDegrees', this indicates whether rotational values are in degrees (yes) or radians (no).

endheader
time	pelvis_tilt	pelvis_list	pelvis_rotation	pelvis_tx	pelvis_ty	pelvis_tz	hip_flexion_r	hip_adduction_r	hip_rotation_r	knee_angle_r	knee_angle_r_beta	ankle_angle_r	subtalar_angle_r	mtp_angle_r	hip_flexion_l	hip_adduction_l	hip_rotation_l	knee_angle_l	knee_angle_l_beta	ankle_angle_l	subtalar_angle_l	mtp_angle_l	lumbar_extension	lumbar_bending	lumbar_rotation	arm_flex_r	arm_add_r	arm_rot_r	elbow_flex_r	pro_sup_r	wrist_flex_r	wrist_dev_r	arm_flex_l	arm_add_l	arm_rot_l	elbow_flex_l	pro_sup_l	wrist_flex_l	wrist_dev_l
      2.97500000	    -10.12294959	      7.36221257	      6.72485286	     -0.40933274	      0.92295790	     -0.73480428	     38.83916970	     -7.78037642	     -8.23913601	     47.26933268	      0.82500549	      4.33260045	      0.00000000	      0.00000000	     58.13290147	      5.99702559	     -6.86867139	     21.46078433	      0.37456135	    -24.16566794	      0.00000000	      0.00000000	    -10.87280870	     -2.37151455	     -7.12684168	     89.92762429	     -4.98295034	     25.19329923	     37.47382093	     82.32087479	      0.00000000	      0.00000000	     89.90365837	    -12.65264908	     26.30596518	     36.43285772	     85.00628602	      0.00000000	      0.00000000
      2.98000000	    -10.16462037	      7.34701652	      6.71203430	     -0.40975150	      0.92203836	     -0.73476871	     39.04062793	     -7.78836405	     -8.23552644	     47.51251105	      0.82924975	      4.41848135	      0.00000000	      0.00000000	     58.27690991	      5.98682537	     -6.94039639	     21.57352194	      0.37652899	    -24.23410267	      0.00000000	      0.00000000	    -10.90166063	     -2.36158637	     -7.11971626	     89.92770684	     -4.96624960	     25.08423881	     37.54405466	     82.72636950	      0.00000000	      0.00000000	     89.90479724	    -12.62952605	     26.12717281	     36.43005808	     84.97015724	      0.00000000	      0.00000000
      2.98500000	    -10.20824892	      7.32250611	      6.68701916	     -0.41015288	      0.92110382	     -0.73473283	     39.24566278	     -7.77568731	     -8.22237441	     47.77537453	      0.83383759	      4.56725984	      0.00000000	      0.00000000	     58.41043458	      5.97184110	     -6.97787095	     21.68910237	      0.37854625	    -24.29315287	      0.00000000	      0.00000000	    -10.92848282	     -2.32391087	     -7.10740164	     89.92810425	     -4.92026464	     24.98791161	     37.60814912	     82.73679722	      0.00000000	      0.00000000	     89.90532745	    -12.68337415	     26.05524253	     36.50913714	     84.87008903	      0.00000000	      0.00000000
      2.99000000	    -10.25907528	      7.35107606	      6.67013488	     -0.41065877	      0.92020061	     -0.73471768	     39.46942308	     -7.81720413	     -8.17770515	     48.02722564	      0.83823322	      4.63394923	      0.00000000	      0.00000000	     58.52396954	      5.99972778	     -6.98621945	     21.69341576	      0.37862153	    -24.39344944	      0.00000000	      0.00000000	    -10.94453709	     -2.36158198	     -7.07070213	     89.92862900	     -4.96073588	     25.18282357	     37.65544110	     81.50205661	      0.00000000	      0.00000000	     89.90620785	    -12.65708647	     26.13487910	     36.53640546	     83.61725095	      0.00000000	      0.00000000
      2.99500000	    -10.26703183	      7.30275672	      6.65263662	     -0.41098783	      0.91930841	     -0.73463581	     39.62557334	     -7.78148211	     -8.19221371	     48.28838621	      0.84279133	      4.81232735	      0.00000000	      0.00000000	     58.65077548	      5.95798558	     -7.04965952	     21.86593943	      0.38163264	    -24.34060336	      0.00000000	      0.00000000	    -10.99464618	     -2.30862137	     -7.07711370	     89.92883437	     -4.88759091	     24.89626763	     37.70196072	     82.19648800	      0.00000000	      0.00000000	     89.90648480	    -12.63965050	     25.70038721	     36.50868572	     85.08632701	      0.00000000	      0.00000000
